<svg xmlns="http://www.w3.org/2000/svg" viewBox="0 0 32 32" fill="none">
  <rect width="32" height="32" rx="8" fill="#0a1628"/>
  <rect width="32" height="32" rx="8" fill="url(#grad)" opacity="0.5"/>
  <path d="M10 7C8.34 7 7 8.34 7 10c0 1.1.6 2.05 1.5 2.6L12 16l-3.5 3.4A3 3 0 007 22c0 1.66 1.34 3 3 3s3-1.34 3-3c0-.55-.16-1.06-.43-1.5L15 17l2.43 2.5A2.99 2.99 0 0017 21c0 1.66 1.34 3 3 3s3-1.34 3-3a3 3 0 00-1.5-2.6L18 15l3.5-3.4A2.99 2.99 0 0023 10c0-1.66-1.34-3-3-3s-3 1.34-3 3c0 .55.16 1.06.43 1.5L15 14l-2.43-2.5C12.84 11.06 13 10.55 13 10c0-1.66-1.34-3-3-3z" fill="#60a5fa"/>
  <defs>
    <linearGradient id="grad" x1="0" y1="0" x2="32" y2="32">
      <stop offset="0%" stop-color="#3b82f6"/>
      <stop offset="100%" stop-color="#6366f1"/>
    </linearGradient>
  </defs>
</svg>
